<svg t="1670058211369" class="icon" viewBox="0 0 1024 1024" version="1.1" xmlns="http://www.w3.org/2000/svg" p-id="9396" width="200" height="200"><path d="M170.666667 868.693333l98.346666-94.72a21.333333 21.333333 0 0 1 30.72 1.173334l98.176 110.122666 98.176-110.122666a21.333333 21.333333 0 0 1 31.829334 0l98.176 110.122666 98.176-110.122666a21.333333 21.333333 0 0 1 30.72-1.173334L853.333333 868.693333V128H170.666667v740.693333z m-42.666667 49.386667V106.709333C128 94.890667 137.706667 85.333333 149.333333 85.333333h725.333334c11.776 0 21.333333 9.642667 21.333333 21.184v811.541334a21.333333 21.333333 0 0 1-36.117333 16.149333l-118.506667-114.133333-99.349333 111.445333a21.333333 21.333333 0 0 1-31.850667 0L512 821.397333l-98.176 110.122667a21.333333 21.333333 0 0 1-31.850667 0l-99.349333-111.445333-118.485333 114.133333A21.333333 21.333333 0 0 1 128 918.08zM298.666667 320c0-11.776 9.493333-21.333333 21.184-21.333333h341.632c11.690667 0 21.184 9.472 21.184 21.333333 0 11.776-9.493333 21.333333-21.184 21.333333H319.850667A21.205333 21.205333 0 0 1 298.666667 320z m0 128c0-11.776 9.6-21.333333 21.482666-21.333333h255.701334c11.861333 0 21.482667 9.472 21.482666 21.333333 0 11.776-9.6 21.333333-21.482666 21.333333H320.149333A21.354667 21.354667 0 0 1 298.666667 448z m0 128c0-11.776 9.6-21.333333 21.482666-21.333333h255.701334c11.861333 0 21.482667 9.472 21.482666 21.333333 0 11.776-9.6 21.333333-21.482666 21.333333H320.149333A21.354667 21.354667 0 0 1 298.666667 576z" fill="#3D3D3D" p-id="9397"></path></svg>
