<svg t="1670570071833" class="icon" viewBox="0 0 1024 1024" version="1.1" xmlns="http://www.w3.org/2000/svg" p-id="15443" width="200" height="200"><path d="M760.2176 176.384h-75.8272c-3.1744 43.6736-39.5264 78.1312-84.0192 78.1312h-176.128c-44.4928 0-80.8448-34.4576-84.0192-78.1312H264.3968c-65.4336 0-118.4768 53.0432-118.4768 118.4768v503.04c0 65.4336 53.0432 118.4768 118.4768 118.4768h495.8208c65.4336 0 118.4768-53.0432 118.4768-118.4768V294.8608c0-65.4336-53.0432-118.4768-118.4768-118.4768z" fill="#FF5F5F" p-id="15444"></path><path d="M763.2384 161.024h-60.6208c-4.6592-50.6368-47.36-90.4704-99.1744-90.4704H427.2128c-51.8656 0-94.5152 39.8336-99.1744 90.4704H267.4176c-73.7792 0-133.8368 60.0576-133.8368 133.8368v503.04c0 73.7792 60.0576 133.8368 133.8368 133.8368h495.8208c73.7792 0 133.8368-60.0576 133.8368-133.8368V294.8608c0-73.8304-60.0576-133.8368-133.8368-133.8368zM427.2128 101.2736h176.1792c37.9904 0 68.9664 30.9248 68.9664 68.9664 0 1.6384-0.1536 3.2768-0.256 4.9152v0.1024c-1.9456 26.8288-19.3536 49.3056-43.1104 58.9312l-0.4608 0.1536c-1.792 0.7168-3.6352 1.3824-5.5296 1.9456-0.4608 0.1536-0.8704 0.2048-1.3312 0.3584-1.6384 0.4608-3.2768 0.8704-4.9152 1.2288-0.9216 0.1536-1.8432 0.256-2.7648 0.4096-1.28 0.2048-2.5088 0.4096-3.7888 0.5632-2.2528 0.2048-4.5056 0.3584-6.8096 0.3584H427.2128c-2.304 0-4.5568-0.1024-6.8096-0.3584-1.28-0.1024-2.5088-0.3584-3.7888-0.5632-0.9216-0.1536-1.8432-0.256-2.7648-0.4096-1.6896-0.3584-3.328-0.768-4.9152-1.2288-0.4608-0.1024-0.8704-0.2048-1.3312-0.3584-1.8944-0.5632-3.7376-1.2288-5.5296-1.9456l-0.4608-0.1536c-23.7056-9.5744-41.1648-32.0512-43.1104-58.9312v-0.1024c-0.1024-1.6384-0.256-3.2768-0.256-4.9152 0.0512-38.0416 30.976-68.9664 68.9664-68.9664z m439.1424 696.6272c0 56.8832-46.2336 103.1168-103.1168 103.1168H267.4176c-56.8832 0-103.1168-46.2336-103.1168-103.1168V294.8608c0-56.8832 46.2336-103.1168 103.1168-103.1168h62.5664c6.7584 30.464 27.4432 55.6544 55.04 68.6592 0.3584 0.2048 0.768 0.3584 1.1264 0.5632 1.9456 0.8704 3.9424 1.6896 5.9904 2.4576 0.8704 0.3584 1.792 0.6656 2.6624 0.9728 1.7408 0.6144 3.5328 1.1776 5.3248 1.6896 1.28 0.3584 2.56 0.6656 3.8912 1.024 1.5872 0.3584 3.1232 0.768 4.7104 1.024 1.7408 0.3584 3.5328 0.5632 5.3248 0.8192 1.2288 0.1536 2.4576 0.3584 3.7376 0.512 3.1232 0.3072 6.2464 0.4608 9.4208 0.4608h176.1792c3.1744 0 6.3488-0.2048 9.4208-0.4608 1.28-0.1024 2.4576-0.3072 3.7376-0.512 1.792-0.256 3.584-0.4608 5.3248-0.8192 1.5872-0.3072 3.1232-0.6656 4.7104-1.024 1.28-0.3072 2.6112-0.6144 3.8912-1.024 1.792-0.512 3.584-1.0752 5.3248-1.6896 0.9216-0.3072 1.792-0.6656 2.6624-0.9728 1.9968-0.768 3.9936-1.5872 5.9904-2.4576 0.4096-0.1536 0.768-0.3584 1.1264-0.5632 27.5968-12.9536 48.3328-38.1952 55.04-68.6592h62.5664c56.8832 0 103.1168 46.2336 103.1168 103.1168v503.04z" fill="#424242" p-id="15445"></path><path d="M553.7792 557.056l125.2352-125.2352a15.36 15.36 0 0 0 0-21.7088 15.36 15.36 0 0 0-21.7088 0l-125.2352 125.2352-125.2352-125.184a15.36 15.36 0 0 0-21.7088 0 15.36 15.36 0 0 0 0 21.7088l125.2352 125.2352-125.2352 125.2352a15.36 15.36 0 0 0 10.8544 26.2144c3.9424 0 7.8848-1.4848 10.8544-4.5056l125.2352-125.2352 125.2352 125.2352c3.0208 3.0208 6.912 4.5056 10.8544 4.5056s7.8848-1.4848 10.8544-4.5056a15.36 15.36 0 0 0 0-21.7088l-125.2352-125.2864z" fill="#FFFFFF" p-id="15446"></path></svg>
