<svg t="1670058193442" class="icon" viewBox="0 0 1024 1024" version="1.1" xmlns="http://www.w3.org/2000/svg" p-id="8436" width="200" height="200"><path d="M412.45696 39.3216L284.97408 450.23232l30.43328 66.8928 137.90208-418.83648 454.3488 95.70816s-103.31648 345.06752-183.60832 558.08512c-70.76352 190.6688-91.392 184.67328-173.12768 161.76128-75.96032-37.74464-51.71712-145.13152-51.71712-145.13152l-372.61312-169.74336s-19.29728 122.81344 12.82048 166.13888c32.14336 43.32544 9.63584 36.10112 265.25184 158.85312 255.57504 122.76224 306.72896 8.06912 319.38048-18.20672 16.10752-34.73408 256.95232-754.51392 256.95232-754.51392L412.45696 39.3216z m15.55968 836.0448c-219.0592-105.20064-222.08-109.5168-236.5952-130.24256-2.57024-3.66592-5.376-7.6544-8.69888-12.1344-4.8896-7.33696-7.59808-27.73504-7.92064-52.80256l266.51136 121.41056c-0.60928 27.50976 3.37408 58.56768 15.872 87.1168a855.7824 855.7824 0 0 1-29.16864-13.34784z" p-id="8437"></path><path d="M504.9088 509.58848c-2.0736-0.77824-4.46464 0.49664-5.18656 2.84672l-11.18208 34.31936c-0.77824 2.39104 0.31232 4.93568 2.42688 5.71392l205.94688 79.04256c2.11456 0.82944 4.41344-0.4608 5.18656-2.79552l11.18208-34.31936c0.74752-2.33472-0.31232-4.93568-2.40128-5.76512L504.9088 509.58848zM544.95744 395.30496c-2.06848-0.77824-4.45952 0.49664-5.18144 2.84672l-11.18208 34.31936c-0.78336 2.39616 0.3072 4.93056 2.42176 5.71392l205.952 79.03744c2.10944 0.83456 4.41344-0.44544 5.18144-2.78016l11.18208-34.32448c0.74752-2.33472-0.31232-4.93568-2.40128-5.76512l-205.97248-79.04768zM580.37248 287.232c-2.06848-0.77824-4.46976 0.49664-5.18656 2.8416l-11.1872 34.32448c-0.768 2.39104 0.31744 4.93056 2.432 5.7088l205.94688 79.04256c2.11456 0.83456 4.40832-0.45056 5.18144-2.7904l11.19232-34.31936c0.7424-2.33472-0.32256-4.93056-2.41152-5.76512L580.37248 287.232zM495.62112 256.08704c-14.89408 0-26.99264 12.94336-26.99264 28.90752s12.10368 28.9024 26.99264 28.9024c14.9504 0 27.02848-12.93824 27.02848-28.9024s-12.07808-28.90752-27.02848-28.90752zM468.608 363.29472c-14.89408 0-26.99264 12.94336-26.99264 28.90752s12.09856 28.9024 26.99264 28.9024c14.9504 0 27.02848-12.93824 27.02848-28.9024s-12.07808-28.90752-27.02848-28.90752zM429.5168 477.83936c-14.89408 0-26.99264 12.94336-26.99264 28.90752s12.09856 28.9024 26.99264 28.9024c14.9504 0 27.02848-12.93824 27.02848-28.9024s-12.07808-28.90752-27.02848-28.90752zM268.96896 528.84992c-11.26912 21.86752-31.05792 26.62912-47.7184 21.28384L279.85408 615.936l-10.88512-87.08608z" p-id="8438"></path><path d="M244.38272 542.19776a26.97216 26.97216 0 0 0 15.52896-34.82624L120.0128 142.336a26.96704 26.96704 0 0 0-50.3552 19.29216l139.89888 365.03552a26.96192 26.96192 0 0 0 34.82624 15.53408z" p-id="8439"></path></svg>
