<svg t="1670304801906" class="icon" viewBox="0 0 1024 1024" version="1.1" xmlns="http://www.w3.org/2000/svg" p-id="2605" data-spm-anchor-id="a313x.7781069.0.i11" width="200" height="200"><path d="M337.175 0H162.375l249.8 449.6h174.8L337.175 0z" fill="#E64A19" p-id="2606"></path><path d="M686.875 0L437.075 449.6H611.875L861.675 0H686.875z" fill="#FF754C" p-id="2607"></path><path d="M586.975 449.6l-1.7-3.3-1.7 3.3h3.4zM482.775 260.7l-86 160.4 27.9 54.4 87-160.6-28.9-54.2z" fill="#C93D18" p-id="2608"></path><path d="M511.975 724.3m-299.7 0a299.7 299.7 0 1 0 599.4 0 299.7 299.7 0 1 0-599.4 0Z" fill="#efa95b" p-id="2609" data-spm-anchor-id="a313x.7781069.0.i7" class=""></path><path d="M511.975 974c-137.9 0-249.8-111.8-249.8-249.8s111.8-249.8 249.8-249.8 249.8 111.8 249.8 249.8c-0.2 138-111.9 249.7-249.8 249.8z m-74.9-174.8v50h149.9v-50h-50V649.4h50v-50H437.075v50h50v149.9h-50z" fill="#db8729" p-id="2610" data-spm-anchor-id="a313x.7781069.0.i5" class="selected"></path></svg>
