<svg t="1670057554221" class="icon" viewBox="0 0 1076 1024" version="1.1" xmlns="http://www.w3.org/2000/svg" p-id="3269" width="200" height="200"><path d="M474.184898 575.158832a287.575197 287.575197 0 1 1 287.575197-287.489097 287.833498 287.833498 0 0 1-287.575197 287.489097z m0-532.014115a244.525018 244.525018 0 1 0 244.525017 244.525018A244.783319 244.783319 0 0 0 474.184898 43.144717z" p-id="3270"></path><path d="M510.088747 979.055613H125.047944a123.554014 123.554014 0 0 1-100.048616-50.282609 125.276021 125.276021 0 0 1-19.458681-111.930466 488.705634 488.705634 0 0 1 319.43233-325.287154 21.52509 21.52509 0 0 1 18.167175 2.41081 243.836215 243.836215 0 0 0 262.175591 0 21.438989 21.438989 0 0 1 18.167176-2.41081A491.977448 491.977448 0 0 1 810.665098 602.797047a21.52509 21.52509 0 0 1-29.618523 31.25443A447.721864 447.721864 0 0 0 619.952804 535.638767a286.800294 286.800294 0 0 1-290.84701 0A445.397154 445.397154 0 0 0 46.782719 829.240989a82.656344 82.656344 0 0 0 12.742853 73.874108 81.192638 81.192638 0 0 0 65.522372 32.890337h385.040803a21.52509 21.52509 0 0 1 0 43.050179z" p-id="3271"></path><path d="M838.561614 1024a21.008487 21.008487 0 0 1-7.23243-1.291505l-216.198-76.543219a21.52509 21.52509 0 0 1-14.37876-20.233584V655.146065a21.438989 21.438989 0 0 1 28.67142-20.233585l209.13777 73.960208 209.05167-73.960208a21.438989 21.438989 0 0 1 28.67142 20.233585v270.785627a21.438989 21.438989 0 0 1-14.29266 20.233584l-216.2841 76.543219a20.577986 20.577986 0 0 1-7.14633 1.291505z m-194.75901-113.308072l194.75901 68.880287 194.672911-68.880287V685.625592l-187.526581 66.383376a21.69729 21.69729 0 0 1-14.37876 0l-187.52658-66.383376z m410.95701 15.239764z" p-id="3272"></path></svg>
