<svg t="1669863642506" class="icon" viewBox="0 0 1024 1024" version="1.1" xmlns="http://www.w3.org/2000/svg" p-id="6813" width="200" height="200"><path d="M392.121961 825.704558a54.399634 54.399634 0 0 1-37.436308-15.2085L134.162404 591.142694a53.22975 53.22975 0 0 1 0-75.457557L593.342114 58.845196a53.22975 53.22975 0 0 1 37.436307-15.793442 54.399634 54.399634 0 0 1 38.02125 15.793442l218.768422 219.353364a52.059865 52.059865 0 0 1 0 74.872616l-154.424768 153.839826-41.530904-38.606192 150.915115-150.330173-211.749115-214.673826-449.820633 450.405575 211.164173 211.164173L543.622018 613.955444l41.530903 41.530904-155.00971 154.424768a53.22975 53.22975 0 0 1-38.02125 15.793442z" p-id="6814" data-spm-anchor-id="a313x.7781069.0.i24" class="" fill="#2c2c2c"></path><path d="M641.307383 689.413001a125.762596 125.762596 0 1 1 125.177653-125.762595 125.762596 125.762596 0 0 1-125.177653 125.762595z m0-192.446018a67.268365 67.268365 0 1 0 66.683423 66.683423 66.683423 66.683423 0 0 0-66.683423-66.683423zM729.516682 41.413915l41.355421-41.413915 158.051411 157.992917-41.355421 41.355421zM16.764483 654.725923l42.232835-40.478008 248.951445 259.714384-42.232835 40.478007z" p-id="6815" fill="#2c2c2c"></path><path d="M784.618248 1016.980692l-37.436308-45.040557a300.075403 300.075403 0 0 0 106.4595-207.069576A280.772307 280.772307 0 0 0 719.104709 557.21604l35.096539-46.795384c102.364903 76.0425 155.594653 161.444076 157.934422 253.280018a355.059979 355.059979 0 0 1-127.517422 253.280018z" p-id="6816" fill="#2c2c2c"></path><path d="M372.233922 965.505769h634.662402v58.494231H372.233922z" p-id="6817" fill="#2c2c2c"></path></svg>
