<svg t="1670569486982" class="icon" viewBox="0 0 1024 1024" version="1.1" xmlns="http://www.w3.org/2000/svg" p-id="10700" width="200" height="200"><path d="M0 0h1024v1024H0V0z" fill="#202425" opacity=".01" p-id="10701"></path><path d="M136.533333 204.8h750.933334a68.266667 68.266667 0 0 1 68.266666 68.266667v546.133333a136.533333 136.533333 0 0 1-136.533333 136.533333H204.8a136.533333 136.533333 0 0 1-136.533333-136.533333V273.066667a68.266667 68.266667 0 0 1 68.266666-68.266667z" fill="#11AA66" p-id="10702"></path><path d="M68.266667 204.8a34.133333 34.133333 0 0 1 34.133333-34.133333h819.2a34.133333 34.133333 0 0 1 34.133333 34.133333v716.8a34.133333 34.133333 0 0 1-34.133333 34.133333H102.4a34.133333 34.133333 0 0 1-34.133333-34.133333V204.8z" fill="#FFAA44" p-id="10703"></path><path d="M68.266667 375.466667a34.133333 34.133333 0 0 1 34.133333-34.133334h819.2a34.133333 34.133333 0 0 1 34.133333 34.133334v546.133333a34.133333 34.133333 0 0 1-34.133333 34.133333H102.4a34.133333 34.133333 0 0 1-34.133333-34.133333V375.466667z" fill="#11AA66" p-id="10704" data-spm-anchor-id="a313x.7781069.0.i31" class="selected"></path><path d="M273.066667 68.266667a34.133333 34.133333 0 0 0-34.133334 34.133333v136.533333a34.133333 34.133333 0 0 0 68.266667 0V102.4a34.133333 34.133333 0 0 0-34.133333-34.133333z m477.866666 0a34.133333 34.133333 0 0 0-34.133333 34.133333v136.533333a34.133333 34.133333 0 1 0 68.266667 0V102.4a34.133333 34.133333 0 0 0-34.133334-34.133333z" fill="#11AA66" p-id="10705"></path><path d="M706.798933 522.001067a34.133333 34.133333 0 0 1 0 48.264533l-204.8 204.8a34.133333 34.133333 0 0 1-48.264533 0l-136.533333-136.533333a34.133333 34.133333 0 1 1 48.264533-48.264534L477.866667 702.6688l180.667733-180.667733a34.133333 34.133333 0 0 1 48.264533 0z" fill="#FFFFFF" p-id="10706"></path></svg>
