<svg t="1670057639880" class="icon" viewBox="0 0 1024 1024" version="1.1" xmlns="http://www.w3.org/2000/svg" p-id="3498" width="200" height="200"><path d="M879.476364 568.552727c2.094545 3.723636 8.843636 16.756364 15.127272 28.858182l14.196364 26.996364a34.909091 34.909091 0 0 0 60.276364-35.141818l-12.567273-23.272728-17.454546-33.047272a299.985455 299.985455 0 0 0-129.861818-114.036364 187.345455 187.345455 0 0 0-124.741818-325.818182 34.909091 34.909091 0 1 0 0 69.818182 117.527273 117.527273 0 0 1 28.858182 232.727273c-10.007273 0-20.014545-1.861818-30.021818-1.861819a34.909091 34.909091 0 0 0-34.909091 34.909091 42.821818 42.821818 0 0 0 1.396363 9.541819 34.909091 34.909091 0 0 0 34.676364 31.185454 191.767273 191.767273 0 0 0 33.047273-3.956364 232.727273 232.727273 0 0 1 161.978182 103.098182zM964.887273 863.650909l-67.723637-67.025454 67.025455-67.49091a29.090909 29.090909 0 1 0-41.192727-41.192727l-67.025455 67.723637-67.490909-67.258182a29.090909 29.090909 0 1 0-40.96 41.425454L814.545455 796.858182l-67.025455 67.490909a29.090909 29.090909 0 0 0 0 41.192727 29.789091 29.789091 0 0 0 20.48 8.378182 28.625455 28.625455 0 0 0 20.712727-8.610909l67.490909-67.490909 67.490909 67.025454a30.021818 30.021818 0 0 0 20.712728 8.610909 29.323636 29.323636 0 0 0 20.48-49.803636zM479.418182 434.734545a200.610909 200.610909 0 1 0-225.28-1.861818 290.210909 290.210909 0 0 0-209.454546 279.272728V837.818182a104.96 104.96 0 0 0 104.727273 104.727273h428.218182a104.96 104.96 0 0 0 104.727273-104.727273v-125.672727a289.978182 289.978182 0 0 0-202.938182-277.41091zM367.941818 137.541818a130.56 130.56 0 1 1-130.56 130.56 130.56 130.56 0 0 1 130.56-130.56zM612.538182 837.818182a34.909091 34.909091 0 0 1-34.909091 34.909091H149.410909a35.141818 35.141818 0 0 1-34.909091-34.909091v-125.672727a220.16 220.16 0 0 1 220.16-219.927273h57.949091a220.16 220.16 0 0 1 219.927273 219.927273z" p-id="3499"></path></svg>
