<svg t="1669863387847" class="icon" viewBox="0 0 1024 1024" version="1.1" xmlns="http://www.w3.org/2000/svg" p-id="4291" width="200" height="200"><path d="M256 768h640v128H256z" fill="#4A8BFE" p-id="4292"></path><path d="M896 928H256a32 32 0 0 1-32-32v-128a32 32 0 0 1 32-32h640a32 32 0 0 1 32 32v128a32 32 0 0 1-32 32zM288 864h576v-64H288z" fill="#4A8BFE" p-id="4293"></path><path d="M128 448h512v128H128z" fill="#3BD5B3" p-id="4294"></path><path d="M640 608H128a32 32 0 0 1-32-32v-128a32 32 0 0 1 32-32h512a32 32 0 0 1 32 32v128a32 32 0 0 1-32 32zM160 544h448v-64H160z" fill="#3BD5B3" p-id="4295"></path><path d="M512 128h384v128H512z" fill="#4A8BFE" p-id="4296"></path><path d="M896 288H512a32 32 0 0 1-32-32V128a32 32 0 0 1 32-32h384a32 32 0 0 1 32 32v128a32 32 0 0 1-32 32zM544 224h320V160H544z" fill="#4A8BFE" p-id="4297"></path></svg>
