<svg t="1670488880328" class="icon" viewBox="0 0 1024 1024" version="1.1" xmlns="http://www.w3.org/2000/svg" p-id="4829" width="200" height="200"><path d="M512 1024c-17.92 0-34.56-1.28-52.48-2.56-19.2-1.28-35.84-3.84-51.2-7.68-16.64-3.84-33.28-7.68-48.64-12.8-15.36-5.12-30.72-10.24-47.36-16.64-15.36-6.4-30.72-14.08-44.8-21.76-14.08-7.68-29.44-16.64-42.24-25.6-14.08-8.96-26.88-19.2-39.68-29.44-12.8-10.24-24.32-21.76-35.84-33.28-11.52-11.52-23.04-24.32-33.28-35.84-10.24-12.8-20.48-25.6-29.44-39.68-8.96-14.08-17.92-28.16-25.6-42.24-7.68-14.08-15.36-29.44-21.76-44.8-6.4-15.36-12.8-32-16.64-47.36-5.12-16.64-8.96-33.28-12.8-48.64-3.84-16.64-6.4-33.28-7.68-51.2-3.84-34.56-3.84-70.4 0-104.96 2.56-17.92 5.12-37.12 7.68-49.92 3.84-17.92 7.68-34.56 12.8-49.92 5.12-15.36 10.24-30.72 16.64-47.36 6.4-15.36 14.08-30.72 21.76-44.8 7.68-14.08 16.64-29.44 25.6-42.24 8.96-14.08 19.2-26.88 29.44-39.68 10.24-12.8 21.76-24.32 33.28-35.84 11.52-11.52 24.32-23.04 35.84-33.28 12.8-10.24 25.6-20.48 39.68-29.44 14.08-8.96 28.16-17.92 42.24-25.6 14.08-7.68 29.44-15.36 44.8-21.76 15.36-6.4 32-12.8 47.36-16.64 16.64-5.12 33.28-8.96 48.64-12.8 16.64-3.84 33.28-6.4 51.2-7.68 34.56-3.84 70.4-3.84 104.96 0 14.08 1.28 24.32 14.08 23.04 28.16-1.28 14.08-14.08 24.32-28.16 23.04-30.72-3.84-62.72-3.84-94.72 0-15.36 1.28-30.72 3.84-46.08 6.4-14.08 2.56-28.16 6.4-43.52 11.52L332.8 87.04c-14.08 5.12-26.88 12.8-39.68 19.2s-25.6 14.08-38.4 23.04c-11.52 7.68-24.32 16.64-35.84 26.88-11.52 8.96-21.76 19.2-33.28 29.44-10.24 10.24-20.48 21.76-29.44 33.28-8.96 11.52-17.92 23.04-26.88 35.84-7.68 11.52-15.36 24.32-23.04 38.4-7.68 12.8-14.08 26.88-19.2 39.68-6.4 14.08-11.52 28.16-15.36 42.24-3.84 14.08-8.96 28.16-11.52 43.52-2.56 12.8-5.12 29.44-6.4 46.08-3.84 30.72-3.84 62.72 0 94.72 1.28 15.36 3.84 30.72 6.4 46.08 2.56 14.08 6.4 28.16 11.52 43.52L87.04 691.2c5.12 14.08 12.8 26.88 19.2 39.68s14.08 25.6 23.04 38.4c7.68 11.52 16.64 24.32 26.88 35.84 8.96 11.52 19.2 21.76 29.44 33.28 10.24 10.24 21.76 20.48 33.28 29.44 11.52 8.96 23.04 17.92 35.84 26.88 11.52 7.68 24.32 15.36 38.4 23.04 12.8 7.68 26.88 14.08 39.68 19.2 14.08 6.4 28.16 11.52 42.24 15.36 14.08 3.84 28.16 7.68 44.8 11.52 14.08 2.56 28.16 5.12 46.08 6.4 2.56 0 6.4 0 8.96 1.28l-35.84-90.88c-5.12-12.8 1.28-28.16 14.08-33.28 12.8-5.12 28.16 1.28 33.28 14.08l51.2 128c2.56 7.68 2.56 16.64-2.56 24.32-6.4 6.4-14.08 10.24-23.04 10.24zM701.44 89.6c-3.84 0-6.4 0-10.24-2.56-14.08-6.4-28.16-11.52-42.24-15.36-14.08-3.84-20.48-17.92-16.64-32 3.84-14.08 19.2-20.48 32-16.64 15.36 5.12 30.72 10.24 47.36 16.64 12.8 5.12 19.2 20.48 14.08 33.28-5.12 10.24-14.08 16.64-24.32 16.64zM821.76 162.56c-6.4 0-11.52-2.56-16.64-6.4-11.52-8.96-23.04-17.92-35.84-26.88-11.52-7.68-15.36-24.32-6.4-35.84 7.68-11.52 24.32-15.36 35.84-6.4 14.08 8.96 26.88 19.2 39.68 29.44 10.24 8.96 12.8 25.6 3.84 35.84-6.4 6.4-14.08 10.24-20.48 10.24zM915.2 266.24c-7.68 0-16.64-3.84-21.76-11.52-7.68-12.8-16.64-24.32-26.88-35.84-8.96-10.24-7.68-26.88 3.84-35.84 10.24-8.96 26.88-7.68 35.84 3.84 10.24 12.8 20.48 25.6 29.44 39.68 7.68 11.52 5.12 28.16-6.4 35.84-3.84 1.28-8.96 3.84-14.08 3.84zM976.64 392.96c-11.52 0-20.48-6.4-24.32-17.92-3.84-14.08-8.96-28.16-15.36-42.24-5.12-12.8 0-28.16 14.08-33.28 12.8-5.12 28.16 0 33.28 14.08 6.4 15.36 12.8 32 16.64 47.36 3.84 14.08-3.84 28.16-16.64 32h-7.68zM998.4 537.6c-14.08 0-25.6-11.52-25.6-25.6 0-15.36-1.28-32-2.56-47.36-1.28-14.08 8.96-26.88 23.04-28.16 14.08-1.28 26.88 8.96 28.16 23.04 1.28 17.92 2.56 34.56 2.56 52.48 0 14.08-11.52 25.6-25.6 25.6zM976.64 682.24c-2.56 0-5.12 0-7.68-1.28-14.08-3.84-20.48-17.92-16.64-32 3.84-14.08 7.68-28.16 11.52-44.8 2.56-14.08 16.64-23.04 30.72-19.2 14.08 2.56 23.04 16.64 19.2 30.72-3.84 16.64-7.68 33.28-12.8 48.64-3.84 11.52-14.08 17.92-24.32 17.92zM915.2 810.24c-5.12 0-10.24-1.28-14.08-3.84-11.52-7.68-14.08-24.32-6.4-35.84 7.68-11.52 15.36-24.32 23.04-38.4 6.4-12.8 21.76-16.64 34.56-10.24 12.8 6.4 16.64 21.76 10.24 34.56-7.68 15.36-16.64 29.44-25.6 42.24-5.12 6.4-14.08 11.52-21.76 11.52zM821.76 912.64c-7.68 0-15.36-3.84-19.2-8.96-8.96-11.52-7.68-26.88 3.84-35.84 11.52-8.96 21.76-19.2 33.28-29.44 10.24-10.24 25.6-10.24 35.84 0s10.24 25.6 0 35.84c-11.52 11.52-24.32 23.04-35.84 33.28-6.4 3.84-12.8 5.12-17.92 5.12zM701.44 985.6c-10.24 0-19.2-6.4-23.04-15.36-5.12-12.8 1.28-28.16 14.08-33.28 14.08-5.12 26.88-12.8 39.68-19.2s28.16-2.56 34.56 10.24 2.56 28.16-10.24 34.56c-14.08 7.68-29.44 15.36-44.8 21.76-3.84 1.28-7.68 1.28-10.24 1.28z" fill="#333333" p-id="4830"></path><path d="M691.2 665.6c-5.12 0-10.24-1.28-15.36-5.12l-179.2-128c-6.4-5.12-10.24-12.8-10.24-20.48V230.4c0-14.08 11.52-25.6 25.6-25.6s25.6 11.52 25.6 25.6v268.8l168.96 120.32c11.52 7.68 14.08 24.32 6.4 35.84-6.4 6.4-14.08 10.24-21.76 10.24z" fill="#333333" p-id="4831"></path></svg>
