<svg t="1670564364383" class="icon" viewBox="0 0 1024 1024" version="1.1" xmlns="http://www.w3.org/2000/svg" p-id="2589" width="200" height="200"><path d="M678.79 523.613l-64.945 64.944c-14.76 14.76-35.424 14.76-50.184 0-14.76-14.76-14.76-35.424 0-50.184l129.889-129.89c5.904-5.904 14.76-5.904 29.52-5.904 5.904 0 20.664 0 29.52 5.904l129.89 129.89c14.76 14.76 14.76 35.424 0 50.184-14.76 14.76-35.425 14.76-50.185 0l-64.944-64.944v203.69c0 20.664-14.76 35.424-35.425 35.424-20.664 0-35.424-14.76-35.424-35.424v-203.69H678.79z" fill="#E76558" p-id="2590"></path><path d="M873.624 316.97c20.664 0 35.424-14.76 35.424-35.424V163.465c0-50.185-44.28-94.465-94.465-94.465H206.465C156.28 69 112 113.28 112 163.465v696.679c0 50.184 44.28 94.465 94.465 94.465h611.07c50.185 0 94.465-44.28 94.465-94.465V747.967c0-20.664-14.76-35.425-35.424-35.425-20.665 0-35.425 14.76-35.425 35.425v112.177c0 14.76-8.856 20.664-20.664 20.664H206.465c-14.76 0-20.664-8.856-20.664-20.664v-696.68c0-14.76 8.856-20.663 20.664-20.663h611.07c14.76 0 20.664 8.856 20.664 20.664v115.13c0 23.615 14.76 38.375 35.425 38.375z" fill="#000000" p-id="2591"></path><path d="M690.598 278.594c0-20.664-14.76-35.424-35.425-35.424h-377.86c-20.664 0-35.424 14.76-35.424 35.424s14.76 35.424 35.425 35.424h377.86c20.664 0 35.424-14.76 35.424-35.424zM421.963 446.86h-144.65c-20.664 0-35.424 14.76-35.424 35.424s14.76 35.424 35.425 35.424h144.65c20.663 0 35.423-14.76 35.423-35.424s-11.808-35.424-35.424-35.424z m0 203.69h-144.65c-20.664 0-35.424 14.76-35.424 35.424s14.76 35.425 35.425 35.425h144.65c20.663 0 35.423-14.76 35.423-35.425 0-20.664-14.76-35.424-35.424-35.424z" fill="#000000" p-id="2592"></path></svg>
