<svg t="1670033189344" class="icon" viewBox="0 0 1024 1024" version="1.1" xmlns="http://www.w3.org/2000/svg" p-id="2708" width="200" height="200"><path d="M963.989333 85.333333c18.133333 0 30.122667 12.053333 30.122667 30.122667v180.693333c0 18.069333-11.989333 30.122667-30.122667 30.122667-18.069333 0-30.122667-12.053333-30.122666-30.122667V187.733333L548.437333 585.28c-6.101333 6.037333-18.069333 6.037333-24.170666 6.037333-12.032 0-18.069333-6.037333-18.069334-12.053333l-84.330666-96.384L78.592 856.341333c-6.08 6.037333-18.133333 12.053333-24.149333 12.053334-12.053333 0-18.005333 0-24.106667-6.016a29.226667 29.226667 0 0 1 0-42.176L391.765333 416.64c6.08-6.016 18.133333-6.016 24.085334-6.016 12.117333 0 18.069333 0 24.149333 6.016l84.266667 102.4L891.776 145.578667h-108.48c-18.090667 0-30.122667-12.053333-30.122667-30.122667S765.205333 85.333333 783.296 85.333333h180.693333zM150.826667 506.986667c0 26.453333 4.522667 51.669333 11.029333 76.181333l-91.498667 102.101333a419.2 419.2 0 0 1-40-178.282666C30.336 274.112 219.178667 85.333333 451.989333 85.333333a420.032 420.032 0 0 1 295.402667 121.002667l-84.629333 86.016c-54.336-53.354667-128.725333-86.549333-210.773334-86.549333-166.058667 0-301.184 135.104-301.184 301.184z m602.368 0c0-14.4-2.304-28.138667-4.224-41.984l98.901333-102.037334a418.389333 418.389333 0 0 1 25.792 144c0 232.874667-188.8 421.653333-421.653333 421.653334A419.882667 419.882667 0 0 1 183.04 831.701333l82.645333-89.92c51.434667 40.896 115.648 66.368 186.304 66.368 166.08 0 301.184-135.104 301.184-301.162666z m-228.906667 144.554666c11.754667 0 42.965333 0 67.370667-24.32l99.562666-102.656c-9.173333 124.693333-112.170667 223.36-239.189333 223.36-54.997333 0-105.173333-19.157333-145.706667-50.24l114.432-124.586666 32.533334 37.056c12.288 24.704 39.210667 41.386667 71.018666 41.386666z m-108.373333-301.184c-11.754667 0-42.965333 0-69.056 26.090667l-133.845334 149.546667c-0.533333-6.378667-1.92-12.522667-1.92-19.029334 0-133.056 107.882667-240.938667 240.938667-240.938666 65.706667 0 125.184 26.517333 168.597333 69.162666l-92.458666 94.016-45.717334-55.296c-23.616-23.552-50.474667-23.552-66.56-23.552z" fill="#FF6033" p-id="2709"></path></svg>
