<svg t="1670058460627" class="icon" viewBox="0 0 1024 1024" version="1.1" xmlns="http://www.w3.org/2000/svg" p-id="12384" width="200" height="200"><path d="M0 0h1024v1024H0z" fill="#E5E5E5" p-id="12385"></path><path d="M0 0h1024v1024H0z" fill="#FFFFFF" p-id="12386"></path><path d="M256 288.8192C256 248.3712 295.5776 204.8 358.4 204.8c62.8224 0 102.4 43.6224 102.4 84.0192v479.6928c0.512 108.0832 89.7024 204.288 204.0832 204.288C775.7824 972.8 870.4 886.7328 870.4 775.1168V409.6a51.2 51.2 0 1 0-102.4 0v365.5168c0 50.0736-43.6736 95.2832-103.1168 95.2832C609.28 870.4 563.2 822.0672 563.2 767.488V288.8704C563.2 179.968 465.1008 102.4 358.4 102.4S153.6 179.968 153.6 288.8192v385.536a153.6512 153.6512 0 1 0 102.4 0V288.768zM153.6 819.2a51.2 51.2 0 1 1 102.4 0 51.2 51.2 0 0 1-102.4 0z" fill="#2c2c2c" p-id="12387" data-spm-anchor-id="a313x.7781069.0.i27" class="selected"></path><path d="M870.4 204.8a51.2 51.2 0 1 0-102.4 0v51.2a51.2 51.2 0 1 0 102.4 0V204.8zM870.4 358.4a51.2 51.2 0 0 1 51.2-51.2h51.2a51.2 51.2 0 1 1 0 102.4h-51.2a51.2 51.2 0 0 1-51.2-51.2zM665.6 307.2a51.2 51.2 0 1 0 0 102.4h51.2a51.2 51.2 0 1 0 0-102.4h-51.2z" fill="#2c2c2c" p-id="12388" data-spm-anchor-id="a313x.7781069.0.i28" class="selected"></path></svg>
