<svg t="1670057415137" class="icon" viewBox="0 0 1024 1024" version="1.1" xmlns="http://www.w3.org/2000/svg" p-id="1963" width="200" height="200"><path d="M510.5 708c-85.88 0-166.61-33.44-227.33-94.17C222.45 553.11 189 472.37 189 386.5c0-85.88 33.44-166.61 94.17-227.33C343.89 98.45 424.63 65 510.5 65c85.88 0 166.61 33.44 227.33 94.17C798.55 219.89 832 300.63 832 386.5c0 85.88-33.44 166.61-94.17 227.33S596.38 708 510.5 708z m0-579C368.51 129 253 244.51 253 386.5S368.51 644 510.5 644 768 528.49 768 386.5 652.49 129 510.5 129z" fill="#666666" p-id="1964"></path><path d="M652.92 346.01l-97.83-14.07-43.75-87.74-43.75 87.74-97.83 14.07 70.79 68.3-16.71 96.44 87.5-45.53 87.5 45.53-16.71-96.44 70.79-68.3zM548.29 437.4l-36.96-19.23-36.96 19.23 7.06-40.74-29.9-28.85 41.32-5.94 18.48-37.06 18.48 37.06 41.32 5.94-29.9 28.85 7.06 40.74zM302.52 647.55l88.47 42.68-71.73 148.68c-0.56-0.86-1.13-1.72-1.73-2.57-17.89-25.59-47.26-40.86-78.55-40.86-1.22 0-2.46 0.02-3.69 0.07-1.44 0.06-2.88 0.15-4.32 0.29l71.55-148.29m-17.43-76.01c-10.1 0-19.39 5.04-23.67 13.92L141.4 834.23c-9.33 19.33-3.7 42.39 12.29 58.15 0.29 0.28 0.58 0.56 0.87 0.83 5.46 4.97 12.48 7.45 19.31 7.45 6.02 0 11.9-1.93 16.45-5.77l37.36-31.57c2.74-2.31 6.3-3.68 10.14-3.83 0.39-0.02 0.79-0.02 1.18-0.02 10.19 0 20.24 5.16 26.1 13.54 2.04 2.92 3 6.33 2.91 9.66l-1.46 57.51c4.12 9.92 13.86 17.35 24.97 18.74 2.51 0.31 5.01 0.47 7.48 0.47 19.77 0 37.96-9.86 46.34-27.24l119.83-248.39c6.23-12.9-0.48-29.03-14.97-36.03l-151.27-72.98c-4.51-2.17-9.26-3.21-13.84-3.21zM719.45 647.55l71.54 148.29c-1.44-0.13-2.88-0.23-4.32-0.29-1.22-0.05-2.46-0.07-3.69-0.07-31.29 0-60.66 15.28-78.55 40.86-0.59 0.85-1.17 1.7-1.73 2.57l-71.73-148.68 88.48-42.68m17.43-76.01c-4.58 0-9.32 1.03-13.84 3.22l-151.27 72.98c-14.5 6.99-21.2 23.12-14.97 36.03l119.83 248.39c8.38 17.38 26.57 27.24 46.34 27.24 2.48 0 4.97-0.15 7.48-0.47 11.11-1.39 20.85-8.82 24.97-18.74l-1.46-57.51c-0.08-3.33 0.87-6.73 2.91-9.66 5.86-8.38 15.91-13.54 26.1-13.54 0.39 0 0.79 0.01 1.18 0.02 3.84 0.15 7.4 1.51 10.14 3.83l37.36 31.57c4.55 3.84 10.43 5.77 16.45 5.77 6.83 0 13.85-2.48 19.31-7.45 0.3-0.27 0.59-0.54 0.87-0.83 15.99-15.76 21.61-38.82 12.29-58.15L760.56 585.46c-4.29-8.88-13.58-13.92-23.68-13.92z" fill="#666666" p-id="1965"></path></svg>
