<svg t="1669871956262" class="icon" viewBox="0 0 1030 1024" version="1.1" xmlns="http://www.w3.org/2000/svg" p-id="3400" width="200" height="200"><path d="M827.904 994.304H51.2c-14.336 0-25.6-11.264-25.6-25.6V229.888c0-14.336 11.264-25.6 25.6-25.6h776.704c14.336 0 25.6 11.264 25.6 25.6v738.816c0 14.336-11.264 25.6-25.6 25.6zM76.8 943.104h725.504V255.488H76.8v687.616z" p-id="3401"></path><path d="M994.304 827.904c-14.336 0-25.6-11.264-25.6-25.6V89.088H217.6c-14.336 0-25.6-11.264-25.6-25.6s11.264-25.6 25.6-25.6h776.704c14.336 0 25.6 11.264 25.6 25.6v738.816c0 14.336-11.264 25.6-25.6 25.6z" p-id="3402"></path><path d="M605.696 512H250.88c-14.336 0-25.6-11.264-25.6-25.6s11.264-25.6 25.6-25.6h354.816c14.336 0 25.6 11.264 25.6 25.6s-11.264 25.6-25.6 25.6z" p-id="3403"></path></svg>
