<svg t="1670057762624" class="icon" viewBox="0 0 1324 1024" version="1.1" xmlns="http://www.w3.org/2000/svg" p-id="4591" width="200" height="200"><path d="M696.43566 297.410246H287.083501C232.55829 297.410246 210.665591 275.517547 210.252521 220.992336c0-24.371117-0.41307-48.742235 2.478419-72.700283 3.304558-30.154094 26.436466-49.981444 57.00363-52.046793 6.609117-0.41307 13.218233-0.41307 19.82735-0.41307h810.029851c58.65591 0 79.309399 21.066559 79.309399 80.135539v50.807584c0 47.089956-23.131908 70.221864-70.634934 70.221863-137.552239 0.41307-274.691408 0.41307-411.830576 0.41307zM1011.194837 441.571601c134.66075 1.652279 243.298104 111.528842 242.058894 244.950384-1.239209 133.421541-112.768052 240.406616-247.428802 239.167406-136.313029-1.239209-244.537313-118.964098-239.580476-253.624849 4.543768-124.334006 115.65954-232.14522 244.950384-230.492941z m31.806373 204.882614c0-31.393304 0.41307-59.482049 0-87.157724-0.41307-21.479629-11.979024-32.219443-35.110932-32.219444-22.718838 0-35.110932 9.500605-35.524001 30.154095-0.82614 42.546188-1.239209 85.505446-0.82614 128.051633 0.41307 27.262606 12.392094 37.589351 40.067769 38.002421h121.442518c27.262606 0 39.654699-11.565954 40.480839-37.589351 0.82614-26.849536-11.979024-38.82856-41.306979-38.82856-28.914885-0.41307-57.4167-0.41307-89.223074-0.41307zM944.277531 368.458249c-38.00242 18.175071-79.722469 34.284792-117.311819 56.590561-51.220653 30.980234-85.918516 78.07019-108.637354 133.008471-6.196047 15.283582-14.457443 20.24042-30.980234 20.24042H149.531263c-54.938282 0-77.65712-22.718838-77.65712-78.07019 0-21.479629-0.41307-42.959258 0-64.025817 0.82614-40.067769 24.371117-64.438887 64.025817-67.330375 3.717628-0.41307 7.435256 0 11.152884 0h783.593384c5.782977-0.41307 11.565954-0.41307 13.631303-0.41307zM691.891892 652.237192c-4.956837 73.526422 11.979024 140.443727 52.872933 203.643405-9.500605 0.82614-15.696652 1.652279-21.892699 1.652279H147.052844c-52.459863 0-75.591771-23.544978-75.591771-75.591771 0-23.544978-0.82614-47.089956 0.41307-70.634933 1.652279-35.110932 26.436466-59.895119 61.134328-59.895119 182.163776-0.41307 364.740621 0 546.904397 0 3.304558-0.82614 6.196047 0 11.979024 0.826139z" p-id="4592"></path></svg>
