<svg class="icon" viewBox="0 0 1024 1024" version="1.1" xmlns="http://www.w3.org/2000/svg" width="200" height="200"><path d="M873.941333 492.394667c-8.618667 137.301333-93.632 253.866667-213.013333 307.712A149.333333 149.333333 0 0 1 362.666667 789.333333a149.333333 149.333333 0 0 1 282.346666-67.968 285.098667 285.098667 0 0 0 148.778667-209.408 191.168 191.168 0 0 0 80.149333-19.562666zM234.666667 170.666667a149.333333 149.333333 0 1 1-7.637334 298.474666V469.333333c0 93.994667 45.525333 177.365333 115.733334 229.269334a193.088 193.088 0 0 0-22.4 78.677333C217.664 713.237333 149.333333 599.253333 149.333333 469.333333c0-8.789333 0.32-17.493333 0.917334-26.133333A149.333333 149.333333 0 0 1 234.666667 170.666667z m277.333333-64c83.136 0 159.744 27.968 220.906667 75.029333a149.333333 149.333333 0 1 1-63.914667 49.856A283.2 283.2 0 0 0 512 184.384c-42.709333 0-83.2 9.386667-119.573333 26.24a192.426667 192.426667 0 0 0-60.458667-56.170667A360.874667 360.874667 0 0 1 512 106.666667z" fill="#000000"></path></svg>
