<svg t="1670569674015" class="icon" viewBox="0 0 1024 1024" version="1.1" xmlns="http://www.w3.org/2000/svg" p-id="14306" width="200" height="200"><path d="M763.4432 195.584v-18.5344L616.1408 92.16v18.4832l-36.1984-20.8896v107.8272l219.6992 126.8224V216.4736z m-73.6768 30.1056a67.6352 67.6352 0 0 1-30.72-52.992c0-19.5072 13.6704-27.392 30.72-17.664a67.6352 67.6352 0 0 1 30.72 52.992c-0.1024 19.5072-13.9264 27.4944-30.72 17.664z" fill="#FF9997" p-id="14307"></path><path d="M689.8176 225.9456a67.6352 67.6352 0 0 1-30.72-52.992 28.672 28.672 0 0 1 2.6624-12.8512c-10.8032-0.768-18.3296 7.3216-18.3296 21.76a67.6352 67.6352 0 0 0 30.72 52.992c12.4416 7.168 23.1424 4.7616 27.904-4.8128a28.8768 28.8768 0 0 1-12.2368-4.096z" fill="#E54545" p-id="14308"></path><path d="M702.9248 230.7584v-18.4832l-147.3024-85.0944v18.4832l-36.1984-20.8896v70.1952l219.6992 126.8224v-70.144zM629.2992 261.12a67.6352 67.6352 0 0 1-30.72-52.992c0-19.5072 13.6704-27.392 30.72-17.664a67.6352 67.6352 0 0 1 30.72 52.992c-0.1536 19.2512-13.824 27.1872-30.72 17.664z" fill="#F6F6F6" p-id="14309"></path><path d="M799.6416 216.576l-15.6672 9.0624V330.752l15.6672-9.0112V216.576z" fill="#E54545" p-id="14310"></path><path d="M458.496 111.2576V659.968l426.2912 246.1696V357.376L458.496 111.2576z" fill="#9A9A9A" p-id="14311"></path><path d="M884.7872 357.12l-49.3056 28.5184V934.4l49.3056-28.5184V357.12z" fill="#787878" p-id="14312"></path><path d="M564.2752 98.816l15.6672-9.216 36.1984 20.9408-15.6672 9.1648-36.1984-20.8896z" fill="#FF9997" p-id="14313"></path><path d="M616.1408 92.0064l-15.6672 9.1648v18.5344l15.6672-9.1648v-18.5344z" fill="#FF9997" p-id="14314"></path><path d="M409.1392 139.4688v548.7616l426.3424 246.1696V385.6384L409.1392 139.4688z" fill="#868686" p-id="14315"></path><path d="M747.776 204.8v-18.5344l-147.3024-85.0944v18.4832l-36.1984-20.8896v105.1648l219.6992 126.8224V225.6384z m-73.6768 30.1056a67.6352 67.6352 0 0 1-30.72-52.992c0-19.5072 13.6704-27.392 30.72-17.664a67.6352 67.6352 0 0 1 30.72 52.992c-0.1024 19.456-13.6192 27.3408-30.6688 17.6128z" fill="#FF625A" p-id="14316"></path><path d="M409.1392 139.4688l49.3568-28.2112 426.2912 245.8624-49.3056 28.5184-426.3424-246.1696z" fill="#9A9A9A" p-id="14317"></path><path d="M503.808 133.7344l15.616-8.9088 36.1984 20.8896-15.6672 8.9088-36.1472-20.8896z" fill="#FF9997" p-id="14318"></path><path d="M799.6416 251.6992l-76.1856 43.9808v43.264l76.1856-43.9296v-43.3152z" fill="#E54545" p-id="14319"></path><path d="M791.808 391.1168v497.9712l18.5856-10.752V380.416l-18.5856 10.7008z" fill="#DCDDDD" p-id="14320"></path><path d="M424.9088 179.0976v498.1248l366.8992 211.8656v-498.176L424.9088 179.0976z" fill="#F6F6F6" p-id="14321"></path><path d="M424.96 179.0976l366.848 212.0192 18.5856-10.7008L443.392 168.5504 424.96 179.0976z" fill="#EBEBEC" p-id="14322"></path><path d="M629.2992 261.12a67.6352 67.6352 0 0 1-30.72-52.992 28.672 28.672 0 0 1 2.6624-12.8512c-10.8032-0.768-18.3296 7.3216-18.3296 21.76a67.6352 67.6352 0 0 0 30.72 52.992c12.4416 7.168 23.1424 4.7616 27.904-4.8128a28.8768 28.8768 0 0 1-12.2368-4.096z" fill="#E54545" p-id="14323"></path><path d="M768.7168 251.904l-56.8832 32.8192 15.2576 8.8576 56.8832-32.8704-15.2576-8.8064z" fill="#FF9997" p-id="14324"></path><path d="M739.1232 251.5456l-15.6672 9.0112v124.672l15.6672-9.0112V251.5456z" fill="#E54545" p-id="14325"></path><path d="M687.3088 239.6672l15.616-8.9088 36.1984 20.7872-15.6672 9.0112-36.1472-20.8896z" fill="#FF9997" p-id="14326"></path><path d="M702.9248 212.2752l-15.616 8.9088v18.4832l15.616-8.9088v-18.4832z" fill="#E54545" p-id="14327"></path><path d="M555.6224 127.1808l147.3024 85.0944-15.616 8.9088-147.3536-85.0432 15.6672-8.96z" fill="#FF9997" p-id="14328"></path><path d="M747.776 186.2656v18.4832l15.6672-9.1648v-18.5344l-15.6672 9.216z" fill="#E54545" p-id="14329"></path><path d="M750.2336 518.5024L466.4832 354.7136v-28.416l283.7504 163.84v28.3648zM750.2336 603.7504L466.4832 439.9616v-28.3648l283.7504 163.7888v28.3648zM750.2336 688.9984l-283.7504-163.7888v-28.3648l283.7504 163.7888v28.3648zM642.2528 711.936l-175.7696-101.4784v-28.3648l175.7696 101.4784v28.3648z" fill="#DCDDDD" p-id="14330"></path><path d="M687.3088 239.6672V221.184l-147.3536-85.0432v18.4832l-36.1472-20.8896v124.672l219.648 126.8224V260.5568z m-73.6768 30.1056a67.6352 67.6352 0 0 1-30.72-52.992c0-19.5072 13.6704-27.392 30.72-17.664a67.6352 67.6352 0 0 1 30.72 52.992c-0.1536 19.5072-13.824 27.4432-30.72 17.664z" fill="#FF625A" p-id="14331"></path><path d="M553.5744 852.1216l-49.3056 28.4672v52.0192l49.3056-28.4672v-52.0192zM244.3776 670.7712l-49.3056 28.4672 1.792 53.8112 49.3056-28.5184-1.792-53.76zM309.8624 702.464l-49.3056 28.4672 1.792 53.76 49.3056-28.4672-1.792-53.76zM200.3968 640.256l-49.3056 28.4672v51.968l49.3056-28.4672v-51.968z" fill="#FF9997" p-id="14332"></path><path d="M257.1264 701.952c0 21.6064-15.36 30.3616-33.8944 19.5584a74.9056 74.9056 0 0 1-33.792-58.6752c0-21.6064 15.36-30.3616 33.8944-19.5584a74.9056 74.9056 0 0 1 33.792 58.6752zM535.3472 902.0928l-206.9504-119.5008C312.32 773.12 299.008 748.032 299.008 726.528c0-21.504 13.2096-31.5392 29.3376-22.1696l206.9504 119.5008c16.128 9.3184 29.3376 34.56 29.3376 56.32 0.1024 21.248-13.1072 31.1808-29.2864 21.9136z" fill="#FF9997" p-id="14333"></path><path d="M485.4784 930.8672L278.528 811.3664c-16.128-9.3184-29.3376-34.56-29.3376-56.32 0-21.504 13.2096-31.5392 29.3376-22.1696l206.9504 119.5008c16.128 9.3184 29.3376 34.56 29.3376 56.32 0 21.504-13.056 31.488-29.3376 22.1696z" fill="#FF625A" p-id="14334"></path><path d="M185.7536 682.3936h34.8672v29.4912h-34.8672z" fill="#FF9997" p-id="14335"></path><path d="M207.0016 730.9824c0 21.6064-15.36 30.3616-33.8944 19.5584a74.9056 74.9056 0 0 1-33.8944-58.7264c0-21.6064 15.36-30.3616 33.8944-19.5584a74.9056 74.9056 0 0 1 33.8944 58.7264z" fill="#FF625A" p-id="14336"></path><path d="M553.5744 727.9616l-49.3056 28.4672v52.0192l49.3056-28.4672v-52.0192zM244.3776 546.6112l-49.3056 28.4672 1.792 53.8112 49.3056-28.4672-1.792-53.8112zM309.8624 578.304l-49.3056 28.4672 1.792 53.76 49.3056-28.4672-1.792-53.76zM200.3968 516.096l-49.3056 28.4672v51.968l49.3056-28.4672V516.096z" fill="#FF9997" p-id="14337"></path><path d="M257.1264 577.792c0 21.6064-15.36 30.3616-33.8944 19.5584a74.9056 74.9056 0 0 1-33.792-58.6752c0-21.6064 15.36-30.3616 33.8944-19.5584a74.9056 74.9056 0 0 1 33.792 58.6752zM535.3472 777.9328L328.3968 658.432c-16.128-9.3184-29.3376-34.56-29.3376-56.32 0-21.504 13.2096-31.5392 29.3376-22.1696l206.9504 119.5008c16.128 9.3184 29.3376 34.56 29.3376 56.32 0.0512 21.504-13.1584 31.488-29.3376 22.1696z" fill="#FF9997" p-id="14338"></path><path d="M485.4784 806.7072L278.528 687.2064c-16.128-9.3184-29.3376-34.56-29.3376-56.32 0-21.504 13.2096-31.5392 29.3376-22.1696l206.9504 119.5008c16.128 9.3184 29.3376 34.56 29.3376 56.32 0 21.504-13.056 31.488-29.3376 22.1696z" fill="#FF625A" p-id="14339"></path><path d="M185.7536 558.2336h34.8672v29.4912h-34.8672z" fill="#FF9997" p-id="14340"></path><path d="M207.0016 606.8224c0 21.6064-15.36 30.3616-33.8944 19.5584a74.9056 74.9056 0 0 1-33.8944-58.7264c0-21.6064 15.36-30.3616 33.8944-19.5584a74.9056 74.9056 0 0 1 33.8944 58.7264z" fill="#FF625A" p-id="14341"></path><path d="M553.5744 603.8016l-49.3056 28.4672v52.0192l49.3056-28.4672v-52.0192zM244.3776 422.4512l-49.3056 28.4672 1.792 53.8112 49.3056-28.4672-1.792-53.8112zM309.8624 454.144l-49.3056 28.4672 1.792 53.76 49.3056-28.4672-1.792-53.76zM200.3968 391.936l-49.3056 28.4672v51.968l49.3056-28.4672V391.936z" fill="#FF9997" p-id="14342"></path><path d="M257.1264 453.632c0 21.6064-15.36 30.3616-33.8944 19.5584A74.9056 74.9056 0 0 1 189.44 414.72c0-21.6064 15.36-30.3616 33.8944-19.5584a74.9056 74.9056 0 0 1 33.792 58.4704zM535.3472 653.7728l-206.9504-119.5008c-16.128-9.3184-29.3376-34.56-29.3376-56.32 0-21.504 13.2096-31.5392 29.3376-22.1696l206.9504 119.5008c16.128 9.3184 29.3376 34.56 29.3376 56.32 0.0512 21.504-13.1584 31.488-29.3376 22.1696z" fill="#FF9997" p-id="14343"></path><path d="M485.4784 682.5472L278.528 563.2c-16.128-9.3184-29.3376-34.56-29.3376-56.32 0-21.504 13.2096-31.5392 29.3376-22.1696L485.4784 604.16c16.128 9.3184 29.3376 34.56 29.3376 56.32 0 21.4016-13.056 31.3856-29.3376 22.0672z" fill="#FF625A" p-id="14344"></path><path d="M185.7536 434.0736h34.8672v29.4912h-34.8672z" fill="#FF9997" p-id="14345"></path><path d="M207.0016 482.6624c0 21.6064-15.36 30.3616-33.8944 19.5584a74.9056 74.9056 0 0 1-33.8944-58.7264c0-21.6064 15.36-30.3616 33.8944-19.5584a74.9056 74.9056 0 0 1 33.8944 58.7264z" fill="#FF625A" p-id="14346"></path></svg>
