<svg t="1670548958724" class="icon" viewBox="0 0 1024 1024" version="1.1" xmlns="http://www.w3.org/2000/svg" p-id="2944" width="200" height="200"><path d="M938.2 365.9c-0.6-89.3-1.3-181.6-0.5-268.2 0.1-8.5-4.2-16.5-11.3-21.1-7.1-4.7-16.1-5.4-23.9-1.9-124.2 55.5-223.9 77.1-296.4 64.3-40.4-7.1-70.7-18.6-102.8-30.8-40-15.2-81.4-30.9-143-38.4-83.4-10-169.3-0.5-255.5 28.2-10.2 3.4-17.1 13-17.1 23.7V528l-2 405.3c-0.1 13.8 11.1 25.1 24.9 25.1h0.1c13.7 0 24.9-11.1 25-24.9l1.3-250.8c60.4-15.4 121.3-21.2 181.2-17.3 68.5 4.5 115.6 20.6 161.1 36.2 39.8 13.6 81 27.7 133.7 32.8 13.4 1.3 26.8 1.9 40.4 1.9 87.5 0 179.1-26.9 272.8-80.1 7.8-4.4 12.6-12.6 12.7-21.5 0.6-86.8 0-179.3-0.7-268.8z m-49.3 253.9c-94.7 51.3-185.8 73.1-271.2 64.9-46.9-4.5-83.5-17.1-122.3-30.3-48.6-16.6-98.8-33.8-173.9-38.7-13.2-0.9-26.5-1.3-39.8-1.3-47.8 0-96 5.6-143.9 16.8V528.3l1.9-388.8c72.7-21.7 144.8-28.4 214.6-20 55.5 6.7 92.3 20.7 131.2 35.5 32.9 12.5 66.9 25.4 111.9 33.3 40.2 7.1 87 5.4 139-5 45.4-9.1 96-25.1 151-47.7-0.3 75.5 0.2 154.2 0.8 230.7 0.6 84.2 1.2 171.2 0.7 253.5z" p-id="2945"></path></svg>
