<svg t="1671854172800" class="icon" viewBox="0 0 1024 1024" version="1.1" xmlns="http://www.w3.org/2000/svg" p-id="6329" width="200" height="200"><path d="M128 0h64v128a64 64 0 0 0 64 64h512a64 64 0 0 0 64-64V0h64a128 128 0 0 1 128 128v768a128 128 0 0 1-128 128H128a128 128 0 0 1-128-128V128a128 128 0 0 1 128-128z m641.152 355.776l-303.936 303.936-175.872-205.184-72.896 62.464 243.328 283.904 377.216-377.216-67.84-67.904zM768 0v64a64 64 0 0 1-64 64H320a64 64 0 0 1-64-64V0h512z" fill="#66C23A" p-id="6330"></path></svg>
