<svg t="1672802298695" class="icon" viewBox="0 0 1024 1024" version="1.1" xmlns="http://www.w3.org/2000/svg" p-id="2032" width="200" height="200"><path d="M638.7712 188.928c-36.693333-36.693333-85.504-56.866133-137.352533-56.866133-51.848533 0-100.693333 20.1728-137.352534 56.866133C327.338667 225.5872 307.165867 274.432 307.165867 326.280533c0 51.848533 20.1728 100.6592 56.866133 137.352534 36.693333 36.693333 85.504 56.866133 137.352533 56.866133 51.848533 0 100.693333-20.1728 137.352534-56.866133 36.693333-36.693333 56.866133-85.504 56.866133-137.352534 0-51.848533-20.138667-100.693333-56.832-137.352533z m-137.386667 286.958933c-82.466133 0-149.572267-67.106133-149.572266-149.6064 0-82.466133 67.106133-149.572267 149.572266-149.572266s149.6064 67.106133 149.6064 149.572266-67.140267 149.6064-149.6064 149.6064zM304.605867 517.461333c-89.531733 0-162.372267 72.840533-162.372267 162.372267s72.840533 162.372267 162.372267 162.372267 162.372267-72.840533 162.372266-162.372267c-0.034133-89.531733-72.874667-162.372267-162.372266-162.372267z m0 280.098134c-64.887467 0-117.725867-52.8384-117.725867-117.725867s52.8384-117.725867 117.725867-117.725867c64.989867 0 117.725867 52.8384 117.725866 117.725867s-52.8384 117.725867-117.725866 117.725867z" fill="#666666" p-id="2033"></path><path d="M344.890027 562.592427l61.46048-103.632214 38.4 22.77376-61.46048 103.632214zM692.053333 662.459733c-46.523733 0-84.343467-37.853867-84.343466-84.343466 0-46.523733 37.853867-84.343467 84.343466-84.343467 46.523733 0 84.343467 37.853867 84.343467 84.343467 0 46.523733-37.853867 84.343467-84.343467 84.343466z m0-119.466666c-19.387733 0-35.1232 15.7696-35.1232 35.1232 0 19.387733 15.7696 35.1232 35.1232 35.1232s35.1232-15.7696 35.1232-35.1232c0-19.387733-15.7696-35.1232-35.1232-35.1232zM835.2768 842.3424c-13.585067 0-24.610133-11.025067-24.610133-24.610133 0-54.5792-53.213867-98.952533-118.613334-98.952534S573.44 763.1872 573.44 817.732267c0 13.585067-11.025067 24.610133-24.610133 24.610133s-24.610133-11.025067-24.610134-24.610133c0-40.277333 17.92-77.9264 50.4832-106.018134 31.505067-27.204267 73.181867-42.154667 117.3504-42.154666 44.168533 0 85.845333 14.984533 117.3504 42.154666 32.5632 28.091733 50.4832 65.7408 50.4832 106.018134 0 13.585067-11.025067 24.610133-24.610133 24.610133z" fill="#666666" p-id="2034"></path></svg>
