<svg t="1676358704317" class="icon" viewBox="0 0 1024 1024" version="1.1" xmlns="http://www.w3.org/2000/svg" p-id="4898" width="200" height="200"><path d="M788.29037 881.777778c-58.405926 0-113.588148-55.182222-113.588148-113.588148 0-38.4-9.955556-66.37037-18.299259-83.057778-8.343704-16.687407-26.548148-34.512593-54.139259-52.906667-23.608889-15.739259-88.082963-26.737778-101.451852-27.117037-11.472593 0-21.807407-5.594074-30.72-16.592592-4.171852-5.12-7.964444-11.282963-12.041482-17.730371-5.688889-9.197037-12.231111-19.626667-19.816296-27.211852-18.014815-18.014815-35.84-26.927407-56.414815-37.262222-11.188148-5.594074-50.725926-6.921481-73.576296 15.928889-23.988148 23.988148-57.173333 32.142222-80.782222 34.797037-26.358519 2.939259-54.802963 0.474074-75.946667-6.637037-11.757037-3.887407-41.908148-15.36-68.645926-36.693333-30.435556-24.367407-46.554074-54.139259-46.554074-86.091852 0-31.478519 13.368889-56.32 43.52-80.687408 24.936296-20.195556 61.345185-40.675556 116.337778-71.585185 16.877037-9.481481 36.02963-20.195556 56.699259-32.047407 70.068148-40.011852 124.681481-66.844444 166.779259-81.92 43.425185-15.54963 70.921481-17.635556 92.065186-17.635556 55.656296 0 113.682963 52.527407 124.586666 96.047408 8.533333 33.943704 10.714074 78.980741 11.282963 100.598518 45.037037 41.339259 238.554074 219.117037 267.377778 247.940741 16.971852 16.971852 27.211852 27.211852 34.607407 42.002963 7.016296 14.032593 9.955556 28.634074 15.73926 57.647407 6.068148 30.340741-1.991111 62.862222-23.988149 96.805926-16.308148 25.125926-36.693333 45.605926-47.691851 56.50963-29.013333 29.202963-58.595556 40.485926-105.33926 40.485926zM511.620741 548.977778c11.567407 1.232593 28.823704 4.077037 46.08 7.869629 33.848889 7.49037 59.543704 16.971852 76.136296 28.065186 36.408889 24.272593 60.491852 48.734815 73.481482 74.808888 15.928889 31.762963 24.272593 69.30963 24.272592 108.468149 0 27.022222 29.677037 56.699259 56.699259 56.699259 35.271111 0 49.019259-7.585185 65.042963-23.608889 17.445926-17.445926 63.715556-63.715556 56.035556-102.020741-4.645926-23.324444-7.205926-36.124444-10.808889-43.425185-3.128889-6.257778-9.197037-12.515556-23.893333-27.211852-31.194074-31.099259-272.213333-252.207407-274.678519-254.482963-5.878519-5.404444-9.197037-12.98963-9.197037-20.954074 0-0.568889-0.18963-60.965926-9.765926-99.555555-1.896296-7.585185-10.808889-21.428148-25.884444-33.754074-14.601481-12.041481-30.814815-19.152593-43.52-19.152593-35.176296 0-82.014815 7.111111-230.684445 92.065185-20.859259 11.946667-40.106667 22.755556-56.983703 32.237037-101.546667 57.078519-130.844444 74.808889-130.844445 102.684445 0 34.322963 49.967407 60.017778 76.325926 68.74074 25.694815 8.533333 76.98963 7.205926 98.607407-14.411851 23.703704-23.703704 53.096296-31.952593 73.576297-34.702223 24.462222-3.223704 49.019259-0.284444 65.706666 8.05926 21.902222 10.903704 46.648889 23.324444 71.205926 47.881481 12.231111 12.231111 20.859259 26.168889 27.875556 37.357037 1.611852 2.654815 3.602963 5.783704 5.214815 8.343704z" p-id="4899" fill="#67C23A"></path><path d="M151.514074 527.075556c-11.662222 0-25.031111-3.697778-40.011852-11.188149-14.980741-7.49037-26.927407-16.402963-27.401481-16.782222-5.025185-3.792593-8.343704-9.576296-9.007408-15.834074-0.663704-6.257778 1.327407-12.61037 5.49926-17.351111 3.128889-3.602963 77.463704-88.177778 133.12-121.552593 3.223704-1.896296 6.637037-3.982222 10.334814-6.162963C304.355556 289.659259 395.188148 237.985185 456.343704 237.985185c46.838519 0 70.542222 19.152593 82.014815 35.176296 13.463704 18.773333 17.161481 43.045926 9.86074 65.137778-9.386667 28.065185-44.278519 48.64-71.964444 60.871111-36.408889 16.118519-79.54963 26.832593-121.457778 29.866667-43.425185 3.223704-102.874074 42.382222-142.317037 68.266667-16.971852 11.093333-30.340741 19.911111-40.77037 25.125926-5.973333 3.128889-12.705185 4.645926-20.195556 4.645926z m-18.299259-51.294815c10.808889 5.214815 16.877037 5.973333 18.678518 5.783703 8.059259-4.171852 20.859259-12.515556 35.650371-22.281481 45.89037-30.151111 108.752593-71.49037 163.934815-75.662222 36.314074-2.654815 75.093333-12.231111 106.382222-26.074074 31.004444-13.748148 45.226667-27.685926 47.217778-33.754074 2.74963-8.154074 1.422222-17.161481-3.602963-24.082963-7.585185-10.524444-23.608889-16.213333-45.131852-16.213334-53.665185 0-158.435556 63.241481-208.782223 93.582223-3.697778 2.180741-7.111111 4.266667-10.429629 6.257777C202.903704 403.911111 157.961481 449.422222 133.214815 475.780741z m-35.460741 5.12zM812.847407 775.205926c-12.98963 0-25.505185-4.361481-35.65037-12.705185-24.367407-19.721481-28.16-55.656296-8.438518-80.023704 19.721481-24.367407 55.656296-28.16 80.023703-8.438518 24.367407 19.721481 28.16 55.656296 8.438519 80.023703-9.576296 11.851852-23.134815 19.152593-38.305185 20.764445-1.991111 0.284444-4.077037 0.379259-6.068149 0.379259z" p-id="4900" fill="#67C23A"></path></svg>
