<svg t="1670809371075" class="icon" viewBox="0 0 1024 1024" version="1.1" xmlns="http://www.w3.org/2000/svg" p-id="7841" width="200" height="200"><path d="M853.333333 938.666667H170.666667a85.333333 85.333333 0 0 1-85.333334-85.333334V170.666667a85.333333 85.333333 0 0 1 85.333334-85.333334h682.666666a85.333333 85.333333 0 0 1 85.333334 85.333334v682.666666a85.333333 85.333333 0 0 1-85.333334 85.333334z m21.333334-768a21.333333 21.333333 0 0 0-21.333334-21.333334H170.666667a21.333333 21.333333 0 0 0-21.333334 21.333334v682.666666a21.333333 21.333333 0 0 0 21.333334 21.333334h682.666666a21.333333 21.333333 0 0 0 21.333334-21.333334V170.666667z" fill="#ff7a45" p-id="7842" data-spm-anchor-id="a313x.7781069.0.i3" class="selected"></path><path d="M608 661.333333a32 32 0 0 1-32-32v-234.666666a32 32 0 0 1 64 0v234.666666a32 32 0 0 1-32 32z m-192 0a32 32 0 0 1-32-32v-234.666666a32 32 0 0 1 64 0v234.666666a32 32 0 0 1-32 32z" fill="#FF9C00" p-id="7843"></path></svg>
