<svg t="1673507184734" class="icon" viewBox="0 0 1024 1024" version="1.1" xmlns="http://www.w3.org/2000/svg" p-id="2754" width="200" height="200"><path d="M0 0h1024v1024H0z" fill="#FFFFFF" p-id="2755"></path><path d="M118.848 382.4a418.432 418.432 0 0 1 787.328-19.904l59.648-23.168a482.368 482.368 0 0 0-907.776 22.976l60.8 20.096z" fill="#313333" p-id="2756"></path><path d="M32 268.16l11.52 187.776 151.232-105.344c0.064 0-92.608-0.384-162.752-82.432zM905.216 641.6a418.496 418.496 0 0 1-787.328 19.904l-59.648 23.168a482.368 482.368 0 0 0 907.776-22.976l-60.8-20.096z" fill="#313333" p-id="2757"></path><path d="M992 755.776l-11.584-187.776-151.232 105.344c0.064 0 92.672 0.384 162.816 82.432z" fill="#313333" p-id="2758"></path><path d="M444.544 288.512h64v271.552h-64z" fill="#333333" p-id="2759"></path><path d="M441.792 564.928l29.12-56.96 241.792 123.52-29.056 56.96z" fill="#333333" p-id="2760"></path></svg>
