<svg t="1672797282640" class="icon" viewBox="0 0 1024 1024" version="1.1" xmlns="http://www.w3.org/2000/svg" p-id="1933" width="200" height="200"><path d="M613.68389 334.537216l149.575644 0 0 299.500235 49.858548 0L813.118082 334.537216l0-49.918923L613.68389 284.618293 613.68389 63.639412 65.240887 63.639412l0 470.566332 548.44198 0L613.682867 334.537216zM563.825342 484.291938 115.099435 484.291938 115.099435 113.552196 563.825342 113.552196 563.825342 484.291938z" fill="#1C1919" p-id="1934"></path><path d="M613.68389 634.040521l0 149.751652L464.108247 783.792173 464.108247 634.040521 65.240887 634.040521l0 324.465836 398.86736 0L464.108247 833.709049l149.575644 0 0 124.798331 349.008812 0L962.692702 634.040521 613.68389 634.040521zM414.249699 783.792173l0 49.915853 0 74.879408L115.099435 908.587434 115.099435 683.959443l299.150264 0L414.249699 783.792173zM912.834154 908.587434 663.542438 908.587434 663.542438 683.959443 912.834154 683.959443 912.834154 908.587434z" fill="#1C1919" p-id="1935"></path></svg>
