<svg t="1673512168964" class="icon" viewBox="0 0 1024 1024" version="1.1" xmlns="http://www.w3.org/2000/svg" p-id="2825" width="200" height="200"><path d="M0 0h1024v1024H0z" fill="#FFFFFF" p-id="2826"></path><path d="M118.784 382.4a418.496 418.496 0 0 1 787.328-19.904l59.648-23.168a482.368 482.368 0 0 0-907.776 22.976l60.8 20.096z" fill="#313333" p-id="2827"></path><path d="M32 268.16l11.52 187.776 151.232-105.344S102.08 350.208 32 268.16zM905.152 641.6a418.496 418.496 0 0 1-787.328 19.904l-59.648 23.168a482.368 482.368 0 0 0 907.776-22.976l-60.8-20.096z" fill="#313333" p-id="2828"></path><path d="M992 755.776l-11.584-187.776-151.232 105.344s92.672 0.384 162.816 82.432z" fill="#313333" p-id="2829"></path><path d="M462.08 651.776L281.792 518.784l38.016-51.52L500.096 600.32z" fill="#333333" p-id="2830"></path><path d="M747.008 379.456l-280.832 272.256-44.544-45.952 280.832-272.256z" fill="#333333" p-id="2831"></path></svg>
