<svg t="1677032569561" class="icon" viewBox="0 0 1024 1024" version="1.1" xmlns="http://www.w3.org/2000/svg" p-id="2799" width="200" height="200"><path d="M844.51 67.69H203.6a63.3 63.3 0 0 0-63.23 63.24v764.76a63.3 63.3 0 0 0 63.23 63.24h640.91a63.3 63.3 0 0 0 63.23-63.24V130.93a63.3 63.3 0 0 0-63.23-63.24zM682.6 109.85a21.1 21.1 0 0 1 21.08 21.08v10.27a21.1 21.1 0 0 1-21.08 21.08H365.5a21.1 21.1 0 0 1-21.08-21.08v-10.27a21.1 21.1 0 0 1 21.08-21.08z m183 785.84a21.1 21.1 0 0 1-21.08 21.08H203.6a21.09 21.09 0 0 1-21.07-21.08V130.93a21.09 21.09 0 0 1 21.07-21.08h102.55a62.32 62.32 0 0 0-3.89 21.08v10.27a63.31 63.31 0 0 0 63.24 63.24h317.1a63.31 63.31 0 0 0 63.24-63.24v-10.27a62.56 62.56 0 0 0-3.84-21.08h102.51a21.1 21.1 0 0 1 21.08 21.08z" fill="#231815" p-id="2800"></path><path d="M718.79 378.53a21.44 21.44 0 0 0-18 6l-47.4 47.39c-7.71 7.7-19.72 9.49-27.38 4.05a20.13 20.13 0 0 1-2.7-30.59l49.16-49.16a21.08 21.08 0 0 0-5.06-33.55 159.24 159.24 0 0 0-187.79 28.43c-42.95 42.92-57.5 107.39-38.3 164.41L263.48 693.26a47.74 47.74 0 0 0 0 67.56l32.6 32.61a47.79 47.79 0 0 0 67.57 0l177.8-177.8c57 19.19 121.46 4.65 164.42-38.29a159.24 159.24 0 0 0 28.42-187.8 21.15 21.15 0 0 0-15.5-11.01z m-42.73 169a117.05 117.05 0 0 1-131.24 24.2 21.13 21.13 0 0 0-23.47 4.37L333.83 763.62c-2.72 2.72-5.2 2.72-7.94 0L293.28 731a5.61 5.61 0 0 1 0-7.94L480.8 535.55a21.07 21.07 0 0 0 4.35-23.46c-19.7-44.32-10-97 24.23-131.23a117.37 117.37 0 0 1 83.19-34.69 116.06 116.06 0 0 1 27 3.19l-26.17 26.16a62.29 62.29 0 0 0 8 94.74c24.34 17.33 59.43 13.63 81.65-8.59l24.4-24.39a117.24 117.24 0 0 1-31.39 110.26z" fill="#231815" p-id="2801"></path></svg>
